<?xml version="1.0" encoding="utf-8"?>
<!-- Generator: Adobe Illustrator 18.0.0, SVG Export Plug-In . SVG Version: 6.00 Build 0)  -->
<!DOCTYPE svg PUBLIC "-//W3C//DTD SVG 1.1//EN" "http://www.w3.org/Graphics/SVG/1.1/DTD/svg11.dtd">
<svg version="1.1" id="logo" xmlns="http://www.w3.org/2000/svg" xmlns:xlink="http://www.w3.org/1999/xlink" x="0px" y="0px"
	 viewBox="0 0 276.9 126.1" enable-background="new 0 0 276.9 126.1" xml:space="preserve">
<g id="seeds">
	<g>
		<path fill="#F1DBA6" d="M35.7,64.2c0,0,10.5,5.6,13.2,17.4c3.2,14-5.3,22.5-10.7,23.5h-5.1c-5.4-1-13.8-9.5-10.6-23.5
			C25.2,69.8,35.7,64.2,35.7,64.2z"/>
		<path fill="#EBCB79" d="M35.7,76.2c-0.4,2.2-0.5,4.4-0.7,6.6c-0.1,2.2-0.2,4.4-0.2,6.6c0,2.2,0.1,4.4,0.2,6.6
			c0.1,2.2,0.3,4.4,0.7,6.6c0.3-2.2,0.5-4.4,0.7-6.6c0.1-2.2,0.2-4.4,0.2-6.6c0-2.2-0.1-4.4-0.2-6.6C36.2,80.6,36,78.4,35.7,76.2z
			 M30,81.2c0,2,0.2,4,0.6,6c0.4,2,1,3.9,2,5.7c-0.2-2-0.5-3.9-0.7-5.9c-0.2-1.9-0.3-3.9-0.2-5.8c0-1.9,0.2-3.8,0.4-5.8
			c0.3-1.9,0.6-3.8,1.1-5.8c-1.1,1.7-1.9,3.5-2.4,5.5C30.2,77.1,30,79.1,30,81.2z M27.7,92.6c-0.5-1.7-0.8-3.4-1-5.2
			c-0.2-1.8-0.1-3.6-0.1-5.4c-0.8,1.7-1.2,3.6-1.3,5.5c-0.1,1.9,0.2,3.8,0.7,5.7c0.6,1.8,1.4,3.6,2.6,5.1c1.1,1.5,2.5,2.9,4,3.9
			c-1.1-1.5-2-3.1-2.9-4.6C28.9,95.9,28.2,94.2,27.7,92.6z M39.6,81.2c0,1.9-0.1,3.9-0.2,5.8c-0.2,1.9-0.4,3.9-0.7,5.9
			c0.9-1.8,1.5-3.7,2-5.7c0.4-2,0.6-4,0.6-6c0-2-0.3-4-0.8-6c-0.5-2-1.3-3.8-2.4-5.5c0.5,1.9,0.9,3.8,1.1,5.8
			C39.5,77.3,39.6,79.3,39.6,81.2z M45.9,87.4c-0.1-1.9-0.5-3.8-1.3-5.5c0.1,1.9,0.1,3.7-0.1,5.4c-0.2,1.8-0.5,3.5-1,5.2
			c-0.5,1.7-1.2,3.3-2.1,4.9c-0.8,1.6-1.8,3.1-2.9,4.6c1.5-1.1,2.9-2.4,4-3.9c1.1-1.5,2-3.3,2.6-5.1C45.7,91.2,46,89.3,45.9,87.4z"
			/>
	</g>
	<g>
		<path fill="#F1DBA6" d="M55.3,70.4c0,0,8.8-2.7,16.9,2.3c9.5,5.9,9.5,15.3,7.1,18.8l-2.8,2.8c-3.5,2.4-12.9,2.4-18.8-7.1
			C52.6,79.2,55.3,70.4,55.3,70.4z"/>
		<path fill="#EBCB79" d="M61.9,77c1,1.4,2.1,2.7,3.3,4c1.1,1.3,2.3,2.5,3.5,3.7c1.2,1.2,2.5,2.4,3.7,3.5c1.3,1.1,2.6,2.3,4,3.3
			c-1-1.4-2.1-2.7-3.3-4c-1.1-1.3-2.3-2.5-3.5-3.7c-1.2-1.2-2.5-2.4-3.7-3.5C64.6,79.1,63.3,78,61.9,77z M61.5,82.8
			c1.1,1.1,2.3,2.1,3.6,3c1.3,0.9,2.7,1.6,4.2,2c-1.2-1-2.4-1.9-3.6-2.9c-1.1-1-2.3-2-3.3-3.1c-1.1-1.1-2-2.2-2.9-3.4
			c-0.9-1.2-1.7-2.5-2.5-3.8c0.3,1.5,0.9,3,1.7,4.4C59.4,80.4,60.4,81.7,61.5,82.8z M66.6,90.3c-1.2-0.6-2.3-1.4-3.4-2.3
			c-1.1-0.9-2.1-1.9-3-3c0.5,1.4,1.3,2.6,2.3,3.7c1,1.1,2.2,2,3.5,2.7c1.3,0.7,2.8,1.2,4.2,1.4c1.5,0.2,2.9,0.2,4.4,0
			c-1.4-0.3-2.8-0.6-4.1-1C69,91.5,67.8,91,66.6,90.3z M66.9,77.5c1.1,1,2.1,2.2,3.1,3.3c1,1.2,1.9,2.4,2.9,3.6
			c-0.5-1.5-1.2-2.9-2-4.2c-0.8-1.3-1.9-2.5-3-3.6c-1.1-1.1-2.4-2.1-3.7-2.9c-1.4-0.8-2.8-1.4-4.4-1.7c1.3,0.8,2.6,1.6,3.8,2.5
			C64.7,75.5,65.8,76.5,66.9,77.5z M73.7,77.5c-1.1-1-2.3-1.8-3.7-2.3c1.1,1,2.1,2,3,3c0.9,1.1,1.7,2.2,2.3,3.4
			c0.7,1.2,1.1,2.5,1.6,3.8c0.4,1.3,0.7,2.7,1,4.1c0.3-1.4,0.3-2.9,0-4.4c-0.2-1.5-0.7-2.9-1.4-4.2C75.7,79.7,74.8,78.5,73.7,77.5z"
			/>
	</g>
	<g>
		<path fill="#F1DBA6" d="M68.6,100c0,0,2.7,8.8-2.3,16.9c-5.9,9.5-15.3,9.5-18.8,7.1l-2.8-2.8c-2.4-3.5-2.4-12.9,7.1-18.8
			C59.7,97.3,68.6,100,68.6,100z"/>
		<path fill="#EBCB79" d="M62,106.6c-1.4,1-2.7,2.1-4,3.3c-1.3,1.1-2.5,2.3-3.7,3.5c-1.2,1.2-2.4,2.5-3.5,3.7
			c-1.1,1.3-2.3,2.6-3.3,4c1.4-1,2.7-2.1,4-3.3c1.3-1.1,2.5-2.3,3.7-3.5c1.2-1.2,2.4-2.5,3.5-3.7C59.9,109.3,61,108,62,106.6z
			 M56.1,106.2c-1.1,1.1-2.1,2.3-3,3.6c-0.9,1.3-1.6,2.7-2,4.2c1-1.2,1.9-2.4,2.9-3.6c1-1.1,2-2.3,3.1-3.3c1.1-1.1,2.2-2,3.4-2.9
			c1.2-0.9,2.5-1.7,3.8-2.5c-1.5,0.3-3,0.9-4.4,1.7C58.5,104.2,57.3,105.1,56.1,106.2z M48.6,111.3c0.6-1.2,1.4-2.3,2.3-3.4
			c0.9-1.1,1.9-2,3-3c-1.4,0.5-2.6,1.3-3.7,2.3c-1.1,1-2,2.2-2.7,3.5c-0.7,1.3-1.2,2.8-1.4,4.2c-0.2,1.5-0.2,2.9,0,4.4
			c0.3-1.4,0.6-2.8,1-4.1C47.5,113.8,48,112.5,48.6,111.3z M61.4,111.6c-1,1.1-2.2,2.1-3.3,3.1c-1.2,1-2.4,1.9-3.6,2.9
			c1.5-0.5,2.9-1.2,4.2-2c1.3-0.8,2.5-1.9,3.6-3c1.1-1.1,2.1-2.4,2.9-3.7c0.8-1.4,1.4-2.8,1.7-4.4c-0.8,1.3-1.6,2.6-2.5,3.8
			C63.5,109.4,62.5,110.5,61.4,111.6z M61.5,118.4c1-1.1,1.8-2.3,2.3-3.7c-1,1.1-2,2.1-3,3c-1.1,0.9-2.2,1.7-3.4,2.3
			c-1.2,0.7-2.5,1.1-3.8,1.6c-1.3,0.4-2.7,0.7-4.1,1c1.4,0.3,2.9,0.3,4.4,0c1.5-0.2,2.9-0.7,4.2-1.4
			C59.3,120.5,60.5,119.5,61.5,118.4z"/>
	</g>
</g>
<g>
	<path fill="#FFD200" d="M0,0h42.6v1.6H22.1v55.5h-1.6V1.6H0V0z"/>
	<path fill="#FFD200" d="M47.2,57.1h-1.6V0h1.6v26.6h40V0h1.6v57.1h-1.6v-29h-40V57.1z"/>
	<path fill="#FFD200" d="M97.4,57.1V0h23.4c6,0,10.3,1.2,13.1,3.6c2.8,2.4,4.2,6.1,4.3,11.1c0.1,3.8-0.9,7-3,9.6
		c-2.1,2.5-5.2,4.3-9.2,5.2v0.2c2.4,0.3,4.3,0.9,5.8,1.7c1.5,0.8,2.6,1.9,3.4,3.2c0.8,1.3,1.3,2.9,1.6,4.7c0.3,1.8,0.4,3.9,0.4,6.2
		c0,0.8,0,1.8,0.1,3c0.1,1.2,0.1,2.4,0.2,3.6c0.1,1.2,0.2,2.2,0.4,3.2s0.4,1.6,0.6,2h-1.8c-0.3-0.6-0.5-1.4-0.6-2.4
		c-0.2-1-0.3-2-0.4-3.2s-0.1-2.3-0.2-3.4c0-1.1,0-2.2,0-3.1c0-2.3-0.2-4.4-0.5-6.3c-0.3-1.8-1.1-3.4-2.1-4.6
		c-1.1-1.3-2.6-2.2-4.6-2.9c-2-0.7-4.6-1-7.9-1H99v26.8H97.4z M120.4,28.7c2.1,0,4.2-0.3,6.1-0.8c1.9-0.5,3.7-1.4,5.2-2.6
		c1.5-1.2,2.7-2.7,3.6-4.4c0.9-1.8,1.4-3.9,1.4-6.4c-0.1-4.1-1.3-7.2-3.7-9.5c-2.4-2.3-6.3-3.4-11.8-3.4H99v27.1H120.4z"/>
	<path fill="#FFD200" d="M184.6,55.5v1.6h-38.2V0h37.9v1.6h-36.3v25h34.2v1.6h-34.2v27.4H184.6z"/>
	<path fill="#FFD200" d="M227.5,55.5v1.6h-38.2V0h37.9v1.6h-36.3v25H225v1.6h-34.2v27.4H227.5z"/>
</g>
<g>
	<path fill="#FFD200" d="M134.3,76.3c-1-2-2.3-3.6-3.9-4.9c-1.6-1.3-3.6-2.1-5.8-2.7c-2.2-0.5-4.6-0.8-7.2-0.8c-2,0-4,0.2-6.2,0.6
		c-2.1,0.4-4.1,1.1-5.8,2.1c-1.7,1-3.2,2.4-4.3,4c-1.1,1.7-1.7,3.8-1.7,6.4c0,2.6,0.6,4.6,1.7,6.2c1.1,1.5,2.6,2.8,4.5,3.8
		s3.9,1.7,6.3,2.2c2.3,0.5,4.7,1.1,7.2,1.7c2.7,0.7,5.2,1.4,7.6,2c2.4,0.6,4.4,1.5,6.2,2.6c1.8,1.1,3.2,2.5,4.2,4.2
		c1,1.8,1.6,4.1,1.6,7.1c0,2.7-0.6,5-1.8,7c-1.2,1.9-2.7,3.5-4.6,4.8c-1.9,1.3-4.1,2.2-6.5,2.7c-2.4,0.6-4.8,0.8-7.3,0.8
		c-3.3,0-6.3-0.4-9-1.1c-2.7-0.7-5.1-1.9-7.1-3.6c-2-1.6-3.5-3.7-4.6-6.3c-1.1-2.6-1.6-5.7-1.6-9.3h1.6c0,3.4,0.5,6.3,1.5,8.7
		c1,2.4,2.4,4.3,4.3,5.8c1.8,1.5,4,2.6,6.6,3.2c2.5,0.7,5.3,1,8.4,1c2.2,0,4.5-0.3,6.7-0.8c2.2-0.5,4.2-1.3,6-2.4
		c1.8-1.1,3.2-2.6,4.3-4.3c1.1-1.8,1.6-3.9,1.6-6.3c0-2.9-0.6-5.2-1.9-6.8c-1.3-1.7-2.9-3-4.8-4c-1.9-1-4.1-1.7-6.5-2.2
		c-2.4-0.5-4.7-1-6.8-1.6c-2.3-0.5-4.6-1.1-6.9-1.7c-2.3-0.6-4.4-1.4-6.2-2.4c-1.8-1-3.3-2.4-4.4-4.2c-1.1-1.7-1.7-4-1.7-6.8
		c0-2.8,0.6-5.2,1.8-7.1c1.2-1.9,2.7-3.4,4.6-4.5c1.9-1.1,4-1.9,6.3-2.4c2.3-0.5,4.6-0.7,6.9-0.7c2.8,0,5.4,0.3,7.8,0.9
		c2.4,0.6,4.5,1.6,6.2,3c1.8,1.4,3.2,3.1,4.3,5.4c1.1,2.2,1.7,4.9,1.8,8.1h-1.6C135.8,80.8,135.3,78.3,134.3,76.3z"/>
	<path fill="#FFD200" d="M184.9,123.2v1.6h-38.2V67.7h37.9v1.6h-36.3v25h34.2v1.6h-34.2v27.4H184.9z"/>
	<path fill="#FFD200" d="M227.9,123.2v1.6h-38.2V67.7h37.9v1.6h-36.3v25h34.2v1.6h-34.2v27.4H227.9z"/>
	<path fill="#FFD200" d="M252.6,67.7c2.8,0,5.7,0.4,8.6,1.3c2.9,0.9,5.5,2.4,7.8,4.6c2.3,2.2,4.2,5.1,5.7,8.8
		c1.5,3.7,2.2,8.3,2.2,13.9c0,5.1-0.7,9.5-2.2,13.1c-1.5,3.6-3.5,6.6-6,8.8c-2.5,2.3-5.4,3.9-8.6,5c-3.2,1.1-6.5,1.6-10,1.6h-17.5
		V67.7H252.6z M250.5,123.2c3.4,0,6.5-0.5,9.6-1.6c3-1.1,5.7-2.7,7.9-5c2.3-2.2,4.1-5,5.4-8.4c1.3-3.4,2-7.4,2-12
		c0-5.3-0.7-9.7-2-13.2c-1.3-3.5-3.1-6.2-5.3-8.3c-2.2-2.1-4.7-3.5-7.4-4.3c-2.7-0.8-5.6-1.2-8.4-1.2h-18v53.9H250.5z"/>
</g>
</svg>
